<?xml version="1.0" encoding="UTF-8"?>
<svg xmlns="http://www.w3.org/2000/svg" viewBox="0 0 512 512" role="img" aria-label="jaXiv logo">
  <defs>
    <linearGradient id="bg" x1="0" y1="0" x2="1" y2="1">
      <stop offset="0" stop-color="#0ea5e9"/>
      <stop offset="1" stop-color="#0369a1"/>
    </linearGradient>
    <filter id="cardShadow" x="-20%" y="-20%" width="140%" height="140%">
      <feGaussianBlur in="SourceAlpha" stdDeviation="6"/>
      <feOffset dx="0" dy="6"/>
      <feComponentTransfer><feFuncA type="linear" slope="0.18"/></feComponentTransfer>
      <feMerge><feMergeNode/><feMergeNode in="SourceGraphic"/></feMerge>
    </filter>
  </defs>

  <rect width="512" height="512" rx="112" fill="url(#bg)"/>

  <g filter="url(#cardShadow)">
    <path d="M120 108
             H352
             L404 160
             V404
             a16 16 0 0 1 -16 16
             H120
             a16 16 0 0 1 -16 -16
             V124
             a16 16 0 0 1 16 -16 Z"
          fill="#ffffff"/>
    <path d="M352 108 V148 a12 12 0 0 0 12 12 H404 Z" fill="#e0f2fe"/>
    <path d="M352 108 L404 160" stroke="#bae6fd" stroke-width="2" fill="none"/>
  </g>

  <g transform="translate(0,0)">
    <path d="M236 188
             a30 30 0 1 1 60 0
             a30 30 0 1 1 -60 0 Z"
          fill="#dc2626"/>
    <path d="M236 252
             h60
             v160
             a64 64 0 0 1 -64 64
             h-22
             a14 14 0 0 1 -14 -14
             v-32
             a14 14 0 0 1 14 -14
             h18
             a8 8 0 0 0 8 -8 Z"
          fill="#0369a1"/>
  </g>

  <g stroke="#bae6fd" stroke-width="6" stroke-linecap="round" opacity="0.9">
    <line x1="328" y1="280" x2="376" y2="280"/>
    <line x1="328" y1="312" x2="376" y2="312"/>
    <line x1="328" y1="344" x2="376" y2="344"/>
  </g>
</svg>
